<?xml version="1.0" encoding="UTF-8" standalone="no"?>
<!-- Created with Inkscape (http://www.inkscape.org/) -->

<svg
   xmlns:dc="http://purl.org/dc/elements/1.1/"
   xmlns:cc="http://creativecommons.org/ns#"
   xmlns:rdf="http://www.w3.org/1999/02/22-rdf-syntax-ns#"
   xmlns:svg="http://www.w3.org/2000/svg"
   xmlns="http://www.w3.org/2000/svg"
   xmlns:sodipodi="http://sodipodi.sourceforge.net/DTD/sodipodi-0.dtd"
   xmlns:inkscape="http://www.inkscape.org/namespaces/inkscape"
   width="210mm"
   height="297mm"
   viewBox="0 0 210 297"
   version="1.1"
   id="svg8"
   inkscape:version="0.92.1 r15371"
   sodipodi:docname="logo.svg">
  <defs
     id="defs2">
    <inkscape:perspective
       sodipodi:type="inkscape:persp3d"
       inkscape:vp_x="12.095925 : 165.34548 : 1"
       inkscape:vp_y="0 : 796.82206 : 0"
       inkscape:vp_z="195.51704 : 165.34548 : 1"
       inkscape:persp3d-origin="103.80648 : 125.90278 : 1"
       id="perspective100" />
  </defs>
  <sodipodi:namedview
     id="base"
     pagecolor="#ffffff"
     bordercolor="#666666"
     borderopacity="1.0"
     inkscape:pageopacity="0.0"
     inkscape:pageshadow="2"
     inkscape:zoom="0.75645161"
     inkscape:cx="665.18886"
     inkscape:cy="825.48393"
     inkscape:document-units="mm"
     inkscape:current-layer="layer1"
     showgrid="false"
     inkscape:snap-text-baseline="true"
     inkscape:window-width="1366"
     inkscape:window-height="705"
     inkscape:window-x="-8"
     inkscape:window-y="-8"
     inkscape:window-maximized="1" />
  <metadata
     id="metadata5">
    <rdf:RDF>
      <cc:Work
         rdf:about="">
        <dc:format>image/svg+xml</dc:format>
        <dc:type
           rdf:resource="http://purl.org/dc/dcmitype/StillImage" />
        <dc:title></dc:title>
      </cc:Work>
    </rdf:RDF>
  </metadata>
  <g
     inkscape:label="Capa 1"
     inkscape:groupmode="layer"
     id="layer1">
    <flowRoot
       xml:space="preserve"
       id="flowRoot3688"
       style="fill:black;fill-opacity:1;stroke:none;font-family:sans-serif;font-style:normal;font-weight:normal;font-size:40px;line-height:1.25;letter-spacing:0px;word-spacing:0px"><flowRegion
         id="flowRegion3690"><rect
           id="rect3692"
           width="71.428574"
           height="62.208176"
           x="285.71429"
           y="385.37683" /></flowRegion><flowPara
         id="flowPara3694" /></flowRoot>    <path
       style="stroke-width:2.85714293"
       d=""
       id="path3894"
       inkscape:connector-curvature="0"
       transform="scale(0.26458333)" />
    <path
       style="fill:#ff9955;stroke-width:2.85714293"
       d=""
       id="path3912"
       inkscape:connector-curvature="0"
       transform="scale(0.26458333)" />
    <g
       id="g102"
       style="fill:#ff0000">
      <path
         d="m 66.563376,98.642693 c 5.052476,2.457237 10.104945,4.914517 15.157404,7.371877 2.114189,-4.23735 4.22836,-8.474627 6.342539,-12.711908 -4.11204,-5.254848 -8.224073,-10.509689 -12.336112,-15.764529 -3.054612,7.03485 -6.109224,14.069703 -9.163831,21.10456 z"
         style="fill:#4c2e59;fill-rule:evenodd;stroke:none;stroke-width:0.81354493;stroke-linejoin:round"
         id="path140"
         inkscape:connector-curvature="0" />
      <path
         d="m 94.333962,81.92916 c -4.291754,2.721691 -8.583508,5.443376 -12.875258,8.16506 4.861594,3.841727 9.723164,7.68347 14.584733,11.52521 7.101743,-4.755812 14.203423,-9.511604 21.305153,-14.267397 -7.67154,-1.80762 -15.34311,-3.615253 -23.014628,-5.422873 z"
         style="fill:#f0b2c3;fill-rule:evenodd;stroke:none;stroke-width:0.77532285;stroke-linejoin:round"
         id="path142"
         inkscape:connector-curvature="0" />
      <path
         d="m 72.092223,74.075685 c 4.294864,3.831793 8.589732,7.663584 12.884592,11.495377 7.015983,-3.341686 14.031972,-6.683366 21.047955,-10.025049 -4.3334,-4.753034 -8.666777,-9.506069 -13.000168,-14.259094 -6.977457,4.262922 -13.954915,8.525842 -20.932379,12.788766 z"
         style="fill:#534b99;fill-rule:evenodd;stroke:none;stroke-width:0.74034286;stroke-linejoin:round"
         id="path144"
         inkscape:connector-curvature="0" />
      <path
         d="m 74.141378,88.527745 c 3.389397,4.880087 6.778784,9.760185 10.168201,14.640265 4.707342,3.2146 9.414752,6.42909 14.122134,9.64354 -1.075481,-4.84448 -2.150957,-9.68902 -3.226442,-14.533595 -7.021289,-3.250079 -14.042575,-6.500169 -21.063866,-9.750253 z"
         style="fill:#c481a3;fill-rule:evenodd;stroke:none;stroke-width:0.81830931;stroke-linejoin:round"
         id="path146"
         inkscape:connector-curvature="0" />
      <path
         d="m 85.69906,82.774078 c 1.531044,4.809264 3.062091,9.61853 4.59312,14.427809 6.295241,-5.495216 12.5905,-10.990422 18.88571,-16.485626 -1.10795,-6.358023 -2.21593,-12.716051 -3.32386,-19.074064 -6.718336,7.043956 -13.436652,14.08792 -20.15497,21.131881 z"
         style="fill:#dfafd0;fill-rule:evenodd;stroke:none;stroke-width:0.74034286;stroke-linejoin:round"
         id="path148"
         inkscape:connector-curvature="0" />
      <path
         d="m 71.521898,77.978812 c -1.934057,6.692553 -3.868116,13.3851 -5.80218,20.077666 7.113336,-1.306787 14.226665,-2.613552 21.339993,-3.920314 2.382838,-10.114523 4.765686,-20.229039 7.148526,-30.343555 -7.562115,4.728735 -15.124224,9.457465 -22.686339,14.186203 z"
         style="fill:#8f7db2;fill-rule:evenodd;stroke:none;stroke-width:0.77987975;stroke-linejoin:round"
         id="path150"
         inkscape:connector-curvature="0" />
    </g>
  </g>
</svg>
